<mxfile host="app.diagrams.net" modified="2024-05-08T09:16:27.105Z" agent="Mozilla/5.0 (Macintosh; Intel Mac OS X 10_15_7) AppleWebKit/537.36 (KHTML, like Gecko) Chrome/124.0.0.0 Safari/537.36 Edg/124.0.0.0" etag="n5FuEBMehLf1vplifWZT" version="24.3.1" type="device">
  <diagram id="C5RBs43oDa-KdzZeNtuy" name="Page-1">
    <mxGraphModel dx="1008" dy="724" grid="1" gridSize="10" guides="1" tooltips="1" connect="1" arrows="1" fold="1" page="1" pageScale="1" pageWidth="827" pageHeight="1169" math="0" shadow="0">
      <root>
        <mxCell id="WIyWlLk6GJQsqaUBKTNV-0" />
        <mxCell id="WIyWlLk6GJQsqaUBKTNV-1" parent="WIyWlLk6GJQsqaUBKTNV-0" />
        <mxCell id="jvQbOrCCWn4yVkEZ0VyJ-2" value="&lt;span style=&quot;color: rgb(0, 0, 0); font-family: Helvetica; font-size: 12px; font-style: normal; font-variant-ligatures: normal; font-variant-caps: normal; font-weight: 400; letter-spacing: normal; orphans: 2; text-align: center; text-indent: 0px; text-transform: none; widows: 2; word-spacing: 0px; -webkit-text-stroke-width: 0px; white-space: normal; background-color: rgb(251, 251, 251); text-decoration-thickness: initial; text-decoration-style: initial; text-decoration-color: initial; display: inline !important; float: none;&quot;&gt;Start&lt;/span&gt;" style="strokeWidth=2;html=1;shape=mxgraph.flowchart.start_2;whiteSpace=wrap;" vertex="1" parent="WIyWlLk6GJQsqaUBKTNV-1">
          <mxGeometry x="350" y="40" width="100" height="100" as="geometry" />
        </mxCell>
        <mxCell id="jvQbOrCCWn4yVkEZ0VyJ-17" value="" style="edgeStyle=orthogonalEdgeStyle;rounded=0;orthogonalLoop=1;jettySize=auto;html=1;" edge="1" parent="WIyWlLk6GJQsqaUBKTNV-1" source="jvQbOrCCWn4yVkEZ0VyJ-7" target="jvQbOrCCWn4yVkEZ0VyJ-11">
          <mxGeometry relative="1" as="geometry" />
        </mxCell>
        <mxCell id="jvQbOrCCWn4yVkEZ0VyJ-7" value="&lt;span style=&quot;color: rgb(0, 0, 0); font-family: Helvetica; font-size: 12px; font-style: normal; font-variant-ligatures: normal; font-variant-caps: normal; font-weight: 400; letter-spacing: normal; orphans: 2; text-align: center; text-indent: 0px; text-transform: none; widows: 2; word-spacing: 0px; -webkit-text-stroke-width: 0px; white-space: normal; background-color: rgb(251, 251, 251); text-decoration-thickness: initial; text-decoration-style: initial; text-decoration-color: initial; display: inline !important; float: none;&quot;&gt;User enters, into relevant input field, either:&amp;nbsp;&lt;/span&gt;&lt;div&gt;&lt;span style=&quot;color: rgb(0, 0, 0); font-family: Helvetica; font-size: 12px; font-style: normal; font-variant-ligatures: normal; font-variant-caps: normal; font-weight: 400; letter-spacing: normal; orphans: 2; text-align: center; text-indent: 0px; text-transform: none; widows: 2; word-spacing: 0px; -webkit-text-stroke-width: 0px; white-space: normal; background-color: rgb(251, 251, 251); text-decoration-thickness: initial; text-decoration-style: initial; text-decoration-color: initial; display: inline !important; float: none;&quot;&gt;1. Departure airport ICAO identifier&lt;/span&gt;&lt;div&gt;&lt;span style=&quot;color: rgb(0, 0, 0); font-family: Helvetica; font-size: 12px; font-style: normal; font-variant-ligatures: normal; font-variant-caps: normal; font-weight: 400; letter-spacing: normal; orphans: 2; text-align: center; text-indent: 0px; text-transform: none; widows: 2; word-spacing: 0px; -webkit-text-stroke-width: 0px; white-space: normal; background-color: rgb(251, 251, 251); text-decoration-thickness: initial; text-decoration-style: initial; text-decoration-color: initial; display: inline !important; float: none;&quot;&gt;2. Arrival airport ICAO identifier&lt;/span&gt;&lt;/div&gt;&lt;div&gt;&lt;span style=&quot;color: rgb(0, 0, 0); font-family: Helvetica; font-size: 12px; font-style: normal; font-variant-ligatures: normal; font-variant-caps: normal; font-weight: 400; letter-spacing: normal; orphans: 2; text-align: center; text-indent: 0px; text-transform: none; widows: 2; word-spacing: 0px; -webkit-text-stroke-width: 0px; white-space: normal; background-color: rgb(251, 251, 251); text-decoration-thickness: initial; text-decoration-style: initial; text-decoration-color: initial; display: inline !important; float: none;&quot;&gt;3. Aircraft ICAO24 transponder in hex&lt;/span&gt;&lt;/div&gt;&lt;/div&gt;" style="shape=parallelogram;html=1;strokeWidth=2;perimeter=parallelogramPerimeter;whiteSpace=wrap;rounded=1;arcSize=12;size=0.23;" vertex="1" parent="WIyWlLk6GJQsqaUBKTNV-1">
          <mxGeometry x="190" y="170" width="420" height="60" as="geometry" />
        </mxCell>
        <mxCell id="jvQbOrCCWn4yVkEZ0VyJ-9" value="" style="endArrow=classic;html=1;rounded=0;exitX=0.5;exitY=1;exitDx=0;exitDy=0;exitPerimeter=0;" edge="1" parent="WIyWlLk6GJQsqaUBKTNV-1" source="jvQbOrCCWn4yVkEZ0VyJ-2" target="jvQbOrCCWn4yVkEZ0VyJ-7">
          <mxGeometry width="50" height="50" relative="1" as="geometry">
            <mxPoint x="200" y="140" as="sourcePoint" />
            <mxPoint x="250" y="90" as="targetPoint" />
          </mxGeometry>
        </mxCell>
        <mxCell id="jvQbOrCCWn4yVkEZ0VyJ-10" value="&lt;span style=&quot;color: rgb(0, 0, 0); font-family: Helvetica; font-size: 12px; font-style: normal; font-variant-ligatures: normal; font-variant-caps: normal; font-weight: 400; letter-spacing: normal; orphans: 2; text-align: center; text-indent: 0px; text-transform: none; widows: 2; word-spacing: 0px; -webkit-text-stroke-width: 0px; white-space: normal; background-color: rgb(251, 251, 251); text-decoration-thickness: initial; text-decoration-style: initial; text-decoration-color: initial; display: inline !important; float: none;&quot;&gt;Request departure airport data from API&lt;/span&gt;" style="rounded=1;whiteSpace=wrap;html=1;absoluteArcSize=1;arcSize=14;strokeWidth=2;" vertex="1" parent="WIyWlLk6GJQsqaUBKTNV-1">
          <mxGeometry x="190" y="280" width="100" height="50" as="geometry" />
        </mxCell>
        <mxCell id="jvQbOrCCWn4yVkEZ0VyJ-19" value="" style="edgeStyle=orthogonalEdgeStyle;rounded=0;orthogonalLoop=1;jettySize=auto;html=1;" edge="1" parent="WIyWlLk6GJQsqaUBKTNV-1" source="jvQbOrCCWn4yVkEZ0VyJ-11" target="jvQbOrCCWn4yVkEZ0VyJ-18">
          <mxGeometry relative="1" as="geometry" />
        </mxCell>
        <mxCell id="jvQbOrCCWn4yVkEZ0VyJ-11" value="&lt;span style=&quot;color: rgb(0, 0, 0); font-family: Helvetica; font-size: 12px; font-style: normal; font-variant-ligatures: normal; font-variant-caps: normal; font-weight: 400; letter-spacing: normal; orphans: 2; text-align: center; text-indent: 0px; text-transform: none; widows: 2; word-spacing: 0px; -webkit-text-stroke-width: 0px; white-space: normal; background-color: rgb(251, 251, 251); text-decoration-thickness: initial; text-decoration-style: initial; text-decoration-color: initial; display: inline !important; float: none;&quot;&gt;Request arrival airport data from API&lt;/span&gt;" style="rounded=1;whiteSpace=wrap;html=1;absoluteArcSize=1;arcSize=14;strokeWidth=2;" vertex="1" parent="WIyWlLk6GJQsqaUBKTNV-1">
          <mxGeometry x="350" y="280" width="100" height="50" as="geometry" />
        </mxCell>
        <mxCell id="jvQbOrCCWn4yVkEZ0VyJ-12" value="&lt;span style=&quot;color: rgb(0, 0, 0); font-family: Helvetica; font-size: 12px; font-style: normal; font-variant-ligatures: normal; font-variant-caps: normal; font-weight: 400; letter-spacing: normal; orphans: 2; text-align: center; text-indent: 0px; text-transform: none; widows: 2; word-spacing: 0px; -webkit-text-stroke-width: 0px; white-space: normal; background-color: rgb(251, 251, 251); text-decoration-thickness: initial; text-decoration-style: initial; text-decoration-color: initial; display: inline !important; float: none;&quot;&gt;Request aircraft data from API&lt;/span&gt;" style="rounded=1;whiteSpace=wrap;html=1;absoluteArcSize=1;arcSize=14;strokeWidth=2;" vertex="1" parent="WIyWlLk6GJQsqaUBKTNV-1">
          <mxGeometry x="510" y="280" width="100" height="50" as="geometry" />
        </mxCell>
        <mxCell id="jvQbOrCCWn4yVkEZ0VyJ-13" value="" style="endArrow=classic;html=1;rounded=0;entryX=0.5;entryY=0;entryDx=0;entryDy=0;exitX=0.25;exitY=1;exitDx=0;exitDy=0;" edge="1" parent="WIyWlLk6GJQsqaUBKTNV-1" source="jvQbOrCCWn4yVkEZ0VyJ-7" target="jvQbOrCCWn4yVkEZ0VyJ-10">
          <mxGeometry width="50" height="50" relative="1" as="geometry">
            <mxPoint x="390" y="280" as="sourcePoint" />
            <mxPoint x="440" y="230" as="targetPoint" />
          </mxGeometry>
        </mxCell>
        <mxCell id="jvQbOrCCWn4yVkEZ0VyJ-15" value="" style="endArrow=classic;html=1;rounded=0;entryX=0.5;entryY=0;entryDx=0;entryDy=0;exitX=0.75;exitY=1;exitDx=0;exitDy=0;" edge="1" parent="WIyWlLk6GJQsqaUBKTNV-1" source="jvQbOrCCWn4yVkEZ0VyJ-7" target="jvQbOrCCWn4yVkEZ0VyJ-12">
          <mxGeometry width="50" height="50" relative="1" as="geometry">
            <mxPoint x="650" y="230" as="sourcePoint" />
            <mxPoint x="650" y="80" as="targetPoint" />
          </mxGeometry>
        </mxCell>
        <mxCell id="jvQbOrCCWn4yVkEZ0VyJ-18" value="Valid data received?" style="strokeWidth=2;html=1;shape=mxgraph.flowchart.decision;whiteSpace=wrap;" vertex="1" parent="WIyWlLk6GJQsqaUBKTNV-1">
          <mxGeometry x="350" y="380" width="100" height="100" as="geometry" />
        </mxCell>
        <mxCell id="jvQbOrCCWn4yVkEZ0VyJ-20" value="" style="endArrow=classic;html=1;rounded=0;entryX=0.5;entryY=0;entryDx=0;entryDy=0;entryPerimeter=0;exitX=0.5;exitY=1;exitDx=0;exitDy=0;" edge="1" parent="WIyWlLk6GJQsqaUBKTNV-1" source="jvQbOrCCWn4yVkEZ0VyJ-10" target="jvQbOrCCWn4yVkEZ0VyJ-18">
          <mxGeometry width="50" height="50" relative="1" as="geometry">
            <mxPoint x="390" y="280" as="sourcePoint" />
            <mxPoint x="440" y="230" as="targetPoint" />
          </mxGeometry>
        </mxCell>
        <mxCell id="jvQbOrCCWn4yVkEZ0VyJ-21" value="" style="endArrow=classic;html=1;rounded=0;exitX=0.5;exitY=1;exitDx=0;exitDy=0;entryX=0.5;entryY=0;entryDx=0;entryDy=0;entryPerimeter=0;" edge="1" parent="WIyWlLk6GJQsqaUBKTNV-1" source="jvQbOrCCWn4yVkEZ0VyJ-12" target="jvQbOrCCWn4yVkEZ0VyJ-18">
          <mxGeometry width="50" height="50" relative="1" as="geometry">
            <mxPoint x="700" y="330" as="sourcePoint" />
            <mxPoint x="750" y="280" as="targetPoint" />
          </mxGeometry>
        </mxCell>
        <mxCell id="jvQbOrCCWn4yVkEZ0VyJ-22" value="No" style="edgeStyle=orthogonalEdgeStyle;rounded=0;html=1;jettySize=auto;orthogonalLoop=1;fontSize=11;endArrow=block;endFill=0;endSize=8;strokeWidth=1;shadow=0;labelBackgroundColor=none;" edge="1" parent="WIyWlLk6GJQsqaUBKTNV-1">
          <mxGeometry y="10" relative="1" as="geometry">
            <mxPoint as="offset" />
            <mxPoint x="450" y="429.5" as="sourcePoint" />
            <mxPoint x="500" y="429.5" as="targetPoint" />
          </mxGeometry>
        </mxCell>
        <mxCell id="jvQbOrCCWn4yVkEZ0VyJ-28" value="" style="edgeStyle=orthogonalEdgeStyle;rounded=0;orthogonalLoop=1;jettySize=auto;html=1;" edge="1" parent="WIyWlLk6GJQsqaUBKTNV-1" source="jvQbOrCCWn4yVkEZ0VyJ-24" target="jvQbOrCCWn4yVkEZ0VyJ-25">
          <mxGeometry relative="1" as="geometry" />
        </mxCell>
        <mxCell id="jvQbOrCCWn4yVkEZ0VyJ-24" value="&lt;span style=&quot;color: rgb(0, 0, 0); font-family: Helvetica; font-size: 12px; font-style: normal; font-variant-ligatures: normal; font-variant-caps: normal; font-weight: 400; letter-spacing: normal; orphans: 2; text-align: center; text-indent: 0px; text-transform: none; widows: 2; word-spacing: 0px; -webkit-text-stroke-width: 0px; white-space: normal; background-color: rgb(251, 251, 251); text-decoration-thickness: initial; text-decoration-style: initial; text-decoration-color: initial; display: inline !important; float: none;&quot;&gt;Display error&lt;/span&gt;" style="rounded=1;whiteSpace=wrap;html=1;absoluteArcSize=1;arcSize=14;strokeWidth=2;" vertex="1" parent="WIyWlLk6GJQsqaUBKTNV-1">
          <mxGeometry x="510" y="405" width="100" height="50" as="geometry" />
        </mxCell>
        <mxCell id="jvQbOrCCWn4yVkEZ0VyJ-25" value="Complete" style="strokeWidth=2;html=1;shape=mxgraph.flowchart.terminator;whiteSpace=wrap;" vertex="1" parent="WIyWlLk6GJQsqaUBKTNV-1">
          <mxGeometry x="510" y="530" width="100" height="60" as="geometry" />
        </mxCell>
        <mxCell id="jvQbOrCCWn4yVkEZ0VyJ-29" value="Yes" style="rounded=0;html=1;jettySize=auto;orthogonalLoop=1;fontSize=11;endArrow=block;endFill=0;endSize=8;strokeWidth=1;shadow=0;labelBackgroundColor=none;edgeStyle=orthogonalEdgeStyle;entryX=0.5;entryY=0;entryDx=0;entryDy=0;" edge="1" parent="WIyWlLk6GJQsqaUBKTNV-1" target="jvQbOrCCWn4yVkEZ0VyJ-30">
          <mxGeometry y="20" relative="1" as="geometry">
            <mxPoint as="offset" />
            <mxPoint x="399.5" y="480" as="sourcePoint" />
            <mxPoint x="399.5" y="520" as="targetPoint" />
          </mxGeometry>
        </mxCell>
        <mxCell id="jvQbOrCCWn4yVkEZ0VyJ-47" value="" style="edgeStyle=orthogonalEdgeStyle;rounded=0;orthogonalLoop=1;jettySize=auto;html=1;" edge="1" parent="WIyWlLk6GJQsqaUBKTNV-1" source="jvQbOrCCWn4yVkEZ0VyJ-30" target="jvQbOrCCWn4yVkEZ0VyJ-41">
          <mxGeometry relative="1" as="geometry" />
        </mxCell>
        <mxCell id="jvQbOrCCWn4yVkEZ0VyJ-30" value="Display results" style="shape=parallelogram;html=1;strokeWidth=2;perimeter=parallelogramPerimeter;whiteSpace=wrap;rounded=1;arcSize=12;size=0.23;" vertex="1" parent="WIyWlLk6GJQsqaUBKTNV-1">
          <mxGeometry x="340" y="530" width="120" height="60" as="geometry" />
        </mxCell>
        <mxCell id="jvQbOrCCWn4yVkEZ0VyJ-33" value="Start" style="strokeWidth=2;html=1;shape=mxgraph.flowchart.start_2;whiteSpace=wrap;" vertex="1" parent="WIyWlLk6GJQsqaUBKTNV-1">
          <mxGeometry x="20" y="20" width="100" height="100" as="geometry" />
        </mxCell>
        <mxCell id="jvQbOrCCWn4yVkEZ0VyJ-34" value="Data" style="shape=parallelogram;html=1;strokeWidth=2;perimeter=parallelogramPerimeter;whiteSpace=wrap;rounded=1;arcSize=12;size=0.23;" vertex="1" parent="WIyWlLk6GJQsqaUBKTNV-1">
          <mxGeometry x="20" y="140" width="100" height="60" as="geometry" />
        </mxCell>
        <mxCell id="jvQbOrCCWn4yVkEZ0VyJ-35" value="Process" style="rounded=1;whiteSpace=wrap;html=1;absoluteArcSize=1;arcSize=14;strokeWidth=2;" vertex="1" parent="WIyWlLk6GJQsqaUBKTNV-1">
          <mxGeometry x="20" y="220" width="100" height="100" as="geometry" />
        </mxCell>
        <mxCell id="jvQbOrCCWn4yVkEZ0VyJ-36" value="Termination" style="strokeWidth=2;html=1;shape=mxgraph.flowchart.terminator;whiteSpace=wrap;" vertex="1" parent="WIyWlLk6GJQsqaUBKTNV-1">
          <mxGeometry x="20" y="470" width="100" height="60" as="geometry" />
        </mxCell>
        <mxCell id="jvQbOrCCWn4yVkEZ0VyJ-37" value="Decision" style="strokeWidth=2;html=1;shape=mxgraph.flowchart.decision;whiteSpace=wrap;" vertex="1" parent="WIyWlLk6GJQsqaUBKTNV-1">
          <mxGeometry x="20" y="340" width="100" height="100" as="geometry" />
        </mxCell>
        <mxCell id="jvQbOrCCWn4yVkEZ0VyJ-38" value="Display air traffic data from&amp;nbsp;&lt;div&gt;OpenSky API&lt;/div&gt;" style="text;html=1;align=center;verticalAlign=middle;resizable=0;points=[];autosize=1;strokeColor=none;fillColor=none;fontSize=20;" vertex="1" parent="WIyWlLk6GJQsqaUBKTNV-1">
          <mxGeometry x="545" y="40" width="270" height="60" as="geometry" />
        </mxCell>
        <mxCell id="jvQbOrCCWn4yVkEZ0VyJ-39" value="User obtains data from OpenSky API&amp;nbsp;&lt;div&gt;on the last 10 minutes of activity for either:&lt;/div&gt;&lt;div&gt;&lt;span style=&quot;background-color: initial;&quot;&gt;1. Departure airport&lt;/span&gt;&lt;/div&gt;&lt;div&gt;&lt;span style=&quot;background-color: initial;&quot;&gt;2. Arrival airport&lt;/span&gt;&lt;/div&gt;&lt;div&gt;&lt;span style=&quot;background-color: initial;&quot;&gt;3. Aircraft&amp;nbsp;&lt;/span&gt;&lt;/div&gt;&lt;div&gt;&lt;br&gt;&lt;/div&gt;&lt;div&gt;User is required to input valid ICAO code&amp;nbsp;&lt;/div&gt;&lt;div&gt;to receive potential results&lt;/div&gt;" style="text;html=1;align=center;verticalAlign=middle;resizable=0;points=[];autosize=1;strokeColor=none;fillColor=none;" vertex="1" parent="WIyWlLk6GJQsqaUBKTNV-1">
          <mxGeometry x="555" y="120" width="250" height="130" as="geometry" />
        </mxCell>
        <mxCell id="jvQbOrCCWn4yVkEZ0VyJ-40" value="List of aircraft departed from specified airport with the following:&lt;div&gt;1. Callsign&lt;/div&gt;&lt;div&gt;2. Last seen&lt;/div&gt;&lt;div&gt;3. ICAO24&lt;/div&gt;" style="rounded=1;whiteSpace=wrap;html=1;absoluteArcSize=1;arcSize=14;strokeWidth=2;" vertex="1" parent="WIyWlLk6GJQsqaUBKTNV-1">
          <mxGeometry x="190" y="640" width="120" height="120" as="geometry" />
        </mxCell>
        <mxCell id="jvQbOrCCWn4yVkEZ0VyJ-49" value="" style="edgeStyle=orthogonalEdgeStyle;rounded=0;orthogonalLoop=1;jettySize=auto;html=1;" edge="1" parent="WIyWlLk6GJQsqaUBKTNV-1" source="jvQbOrCCWn4yVkEZ0VyJ-41" target="jvQbOrCCWn4yVkEZ0VyJ-48">
          <mxGeometry relative="1" as="geometry" />
        </mxCell>
        <mxCell id="jvQbOrCCWn4yVkEZ0VyJ-41" value="List of aircraft arriving at specified airport with the following:&lt;div&gt;1. Callsign&lt;/div&gt;&lt;div&gt;2. Last seen&lt;/div&gt;&lt;div&gt;3. ICAO24&lt;/div&gt;" style="rounded=1;whiteSpace=wrap;html=1;absoluteArcSize=1;arcSize=14;strokeWidth=2;" vertex="1" parent="WIyWlLk6GJQsqaUBKTNV-1">
          <mxGeometry x="340" y="640" width="120" height="120" as="geometry" />
        </mxCell>
        <mxCell id="jvQbOrCCWn4yVkEZ0VyJ-42" value="List with the following:&lt;div&gt;1. Callsign&lt;/div&gt;&lt;div&gt;2. Last seen&lt;/div&gt;&lt;div&gt;3. Departure airport (if known)&lt;/div&gt;&lt;div&gt;4. Arrival airport (if known)&lt;/div&gt;" style="rounded=1;whiteSpace=wrap;html=1;absoluteArcSize=1;arcSize=14;strokeWidth=2;" vertex="1" parent="WIyWlLk6GJQsqaUBKTNV-1">
          <mxGeometry x="490" y="640" width="120" height="120" as="geometry" />
        </mxCell>
        <mxCell id="jvQbOrCCWn4yVkEZ0VyJ-45" value="" style="endArrow=classic;html=1;rounded=0;exitX=0;exitY=1;exitDx=0;exitDy=0;entryX=0.5;entryY=0;entryDx=0;entryDy=0;" edge="1" parent="WIyWlLk6GJQsqaUBKTNV-1" source="jvQbOrCCWn4yVkEZ0VyJ-30" target="jvQbOrCCWn4yVkEZ0VyJ-40">
          <mxGeometry width="50" height="50" relative="1" as="geometry">
            <mxPoint x="90" y="610" as="sourcePoint" />
            <mxPoint x="140" y="560" as="targetPoint" />
          </mxGeometry>
        </mxCell>
        <mxCell id="jvQbOrCCWn4yVkEZ0VyJ-46" value="" style="endArrow=classic;html=1;rounded=0;exitX=0.75;exitY=1;exitDx=0;exitDy=0;entryX=0.5;entryY=0;entryDx=0;entryDy=0;" edge="1" parent="WIyWlLk6GJQsqaUBKTNV-1" source="jvQbOrCCWn4yVkEZ0VyJ-30" target="jvQbOrCCWn4yVkEZ0VyJ-42">
          <mxGeometry width="50" height="50" relative="1" as="geometry">
            <mxPoint x="700" y="590" as="sourcePoint" />
            <mxPoint x="760" y="520" as="targetPoint" />
          </mxGeometry>
        </mxCell>
        <mxCell id="jvQbOrCCWn4yVkEZ0VyJ-48" value="Complete" style="strokeWidth=2;html=1;shape=mxgraph.flowchart.terminator;whiteSpace=wrap;" vertex="1" parent="WIyWlLk6GJQsqaUBKTNV-1">
          <mxGeometry x="350" y="810" width="100" height="60" as="geometry" />
        </mxCell>
        <mxCell id="jvQbOrCCWn4yVkEZ0VyJ-50" value="" style="endArrow=classic;html=1;rounded=0;exitX=0.5;exitY=1;exitDx=0;exitDy=0;entryX=0.89;entryY=0.11;entryDx=0;entryDy=0;entryPerimeter=0;" edge="1" parent="WIyWlLk6GJQsqaUBKTNV-1" source="jvQbOrCCWn4yVkEZ0VyJ-42" target="jvQbOrCCWn4yVkEZ0VyJ-48">
          <mxGeometry width="50" height="50" relative="1" as="geometry">
            <mxPoint x="700" y="710" as="sourcePoint" />
            <mxPoint x="750" y="660" as="targetPoint" />
          </mxGeometry>
        </mxCell>
        <mxCell id="jvQbOrCCWn4yVkEZ0VyJ-51" value="" style="endArrow=classic;html=1;rounded=0;exitX=0.5;exitY=1;exitDx=0;exitDy=0;entryX=0.11;entryY=0.11;entryDx=0;entryDy=0;entryPerimeter=0;" edge="1" parent="WIyWlLk6GJQsqaUBKTNV-1" source="jvQbOrCCWn4yVkEZ0VyJ-40" target="jvQbOrCCWn4yVkEZ0VyJ-48">
          <mxGeometry width="50" height="50" relative="1" as="geometry">
            <mxPoint x="690" y="650" as="sourcePoint" />
            <mxPoint x="740" y="600" as="targetPoint" />
          </mxGeometry>
        </mxCell>
      </root>
    </mxGraphModel>
  </diagram>
</mxfile>
